<svg width="28" height="32" viewBox="0 0 512 512"><path d="M480 96h-92l9-36 39-13c8-2 13-11 10-19a16 16 0 00-20-11l-47 16a16 16 0 00-11 11l-12 52H224c-8 0-16 7-16 15a16 16 0 0016 17h3l1 9a8 8 0 008 7c39 0 74 11 100 32a122 122 0 0135 42 123 123 0 0110 30 8 8 0 003 4 72 72 0 0127 87 8 8 0 000 5 96 96 0 015 32c0 22-8 44-21 60a80 80 0 01-29 22 8 8 0 00-4 4 108 108 0 01-18 30 3 3 0 002 4h49a48 48 0 0048-44l34-324h3a16 16 0 0016-17c0-8-8-15-16-15M109 320a24 24 0 0117 7l15 16a4 4 0 006 0l15-16a24 24 0 0117-7h197a8 8 0 008-8 40 40 0 00-32-39c-1-30-13-55-36-72-20-16-48-25-80-25h-72c-68 0-114 39-116 97a40 40 0 00-32 39 8 8 0 008 8Zm77 32a8 8 0 00-6 2l-22 22a20 20 0 01-28 0l-22-22a8 8 0 00-6-2H33a16 16 0 00-16 13 65 65 0 00-1 11c0 31 21 56 47 56 3 15 9 29 17 39 14 16 33 25 54 25h132c21 0 40-9 54-25 8-10 14-24 17-39 26 0 47-25 47-56a65 65 0 00-1-11 16 16 0 00-16-13Z"/></svg>